<svg id="Слой_1" data-name="Слой 1" xmlns="http://www.w3.org/2000/svg" viewBox="0 0 512 259"><defs><style>.cls-1{fill:#3e4b5c;}</style></defs><title>Монтажная область 1</title><g id="surface1"><path class="cls-1" d="M500.43,229.64,436.65,21.75c-3-9.91-15.21-14.55-27.77-14.55-12.23,0-24.45,4.64-27.43,14.55L365.82,72.68l-5.94,19.38L317.66,229.64A19.25,19.25,0,0,0,317,233c0,10.57,15.53,17.85,27.1,17.85,7.27,0,12.89-2.32,14.55-8.59l12.55-44h75.7l12.55,44c1.66,6.27,7.28,8.59,14.55,8.59,11.57,0,27.1-7.61,27.1-17.85A14.14,14.14,0,0,0,500.43,229.64Zm-120.3-65.11L408.88,63.06l28.76,101.47Z"/><path class="cls-1" d="M212.81,173.6v54.15c0,11.65-13.67,20.77-31.9,20.77-16.71,0-29.37-9.12-29.37-20.77V213.07c-18.24,20.76-42,40-77,40-35.95,0-65.83-21.27-65.83-67.36,0-58.24,48.11-74.44,118-74.44h20.76v-6.59c0-21.78-11.14-46.59-44.56-46.59-39,0-45.58,15.7-57.74,15.7C30.5,73.8,22.9,56.07,22.9,41.38c0-20.76,45.07-36.46,81-36.46,79,0,108.88,47.61,108.88,98.76Zm-65.33-28.39h-7.59c-33.93,0-65.84,3.54-65.84,31.9,0,18.74,11.65,27.35,26.84,27.35,20.76,0,46.59-23.81,46.59-48.62V145.21Z"/></g><rect class="cls-1" x="230.5" y="113.8" width="96.41" height="14.83"/></svg>